<svg xmlns:xlink="http://www.w3.org/1999/xlink" xmlns="http://www.w3.org/2000/svg" version="1.1" viewBox="0 0 1024 1024" height="1024px" width="1024px">
    <title>暂无搜索结果</title>
    <defs>
        <linearGradient id="linearGradient-1" y2="100%" x2="50%" y1="0%" x1="50%">
            <stop offset="0%" stop-color="#F9AB21"></stop>
            <stop offset="100%" stop-color="#FEE127"></stop>
        </linearGradient>
        <linearGradient id="linearGradient-2" y2="100%" x2="50%" y1="0%" x1="50%">
            <stop offset="0%" stop-color="#F9AB21"></stop>
            <stop offset="100%" stop-opacity="0" stop-color="#FFF29D"></stop>
        </linearGradient>
        <linearGradient id="linearGradient-3" y2="100%" x2="50%" y1="0%" x1="50%">
            <stop offset="0%" stop-color="#F9AB21"></stop>
            <stop offset="100%" stop-opacity="0" stop-color="#FFF29D"></stop>
        </linearGradient>
        <linearGradient id="linearGradient-4" y2="100%" x2="50%" y1="0%" x1="50%">
            <stop offset="0%" stop-color="#FFF29D"></stop>
            <stop offset="100%" stop-color="#F9AB21"></stop>
        </linearGradient>
        <linearGradient id="linearGradient-5" y2="100%" x2="50%" y1="0%" x1="50%">
            <stop offset="0%" stop-color="#FFF29D"></stop>
            <stop offset="100%" stop-color="#F9AB21"></stop>
        </linearGradient>
        <linearGradient id="linearGradient-6" y2="100%" x2="50%" y1="0%" x1="50%">
            <stop offset="0%" stop-color="#FFF29D"></stop>
            <stop offset="100%" stop-color="#F9AB21"></stop>
        </linearGradient>
        <linearGradient id="linearGradient-7" y2="100%" x2="50%" y1="0%" x1="50%">
            <stop offset="0%" stop-color="#FFF29D"></stop>
            <stop offset="100%" stop-color="#F9AB21"></stop>
        </linearGradient>
        <linearGradient id="linearGradient-8" y2="100%" x2="50%" y1="0%" x1="50%">
            <stop offset="0%" stop-color="#FFF29D"></stop>
            <stop offset="100%" stop-color="#F9AB21"></stop>
        </linearGradient>
        <linearGradient id="linearGradient-9" y2="124.629284%" x2="48.6149079%" y1="-26.426716%" x1="50%">
            <stop offset="0%" stop-color="#FEE127"></stop>
            <stop offset="100%" stop-color="#F9AB21"></stop>
        </linearGradient>
        <linearGradient id="linearGradient-10" y2="124.629284%" x2="48.0871211%" y1="-26.426716%" x1="50%">
            <stop offset="0%" stop-color="#FEE127"></stop>
            <stop offset="100%" stop-color="#F9AB21"></stop>
        </linearGradient>
        <linearGradient id="linearGradient-11" y2="124.629284%" x2="46.1419753%" y1="-26.426716%" x1="50%">
            <stop offset="0%" stop-color="#FEE127"></stop>
            <stop offset="100%" stop-color="#F9AB21"></stop>
        </linearGradient>
        <linearGradient id="linearGradient-12" y2="124.629284%" x2="45.6104252%" y1="-26.426716%" x1="50%">
            <stop offset="0%" stop-color="#FEE127"></stop>
            <stop offset="100%" stop-color="#F9AB21"></stop>
        </linearGradient>
        <linearGradient id="linearGradient-13" y2="124.629284%" x2="46.5426386%" y1="-26.426716%" x1="50%">
            <stop offset="0%" stop-color="#FEE127"></stop>
            <stop offset="100%" stop-color="#F9AB21"></stop>
        </linearGradient>
        <linearGradient id="linearGradient-14" y2="100%" x2="50%" y1="0%" x1="50%">
            <stop offset="0%" stop-color="#F9AB21"></stop>
            <stop offset="100%" stop-color="#FEE127"></stop>
        </linearGradient>
        <linearGradient id="linearGradient-15" y2="100%" x2="50%" y1="0%" x1="50%">
            <stop offset="0%" stop-color="#FFF29D"></stop>
            <stop offset="100%" stop-color="#F9AB21"></stop>
        </linearGradient>
        <linearGradient id="linearGradient-16" y2="100%" x2="50%" y1="0%" x1="50%">
            <stop offset="0%" stop-color="#FFF29D"></stop>
            <stop offset="100%" stop-color="#F9AB21"></stop>
        </linearGradient>
        <linearGradient id="linearGradient-17" y2="100%" x2="54.9709061%" y1="15.0779512%" x1="-3.31049435%">
            <stop offset="0%" stop-color="#F9AB21"></stop>
            <stop offset="100%" stop-color="#FFF29D"></stop>
        </linearGradient>
        <linearGradient id="linearGradient-18" y2="63.6533807%" x2="149.047238%" y1="36.3874301%" x1="-8.22895932%">
            <stop offset="0%" stop-color="#F9AB21"></stop>
            <stop offset="100%" stop-color="#FFF29D"></stop>
        </linearGradient>
        <linearGradient id="linearGradient-19" y2="100%" x2="50%" y1="0%" x1="50%">
            <stop offset="0%" stop-color="#FFF29D"></stop>
            <stop offset="100%" stop-color="#F9AB21"></stop>
        </linearGradient>
        <linearGradient id="linearGradient-20" y2="100%" x2="50%" y1="0%" x1="50%">
            <stop offset="0%" stop-color="#FFF29D"></stop>
            <stop offset="100%" stop-color="#F9AB21"></stop>
        </linearGradient>
        <linearGradient id="linearGradient-21" y2="151.645374%" x2="123.962228%" y1="-51.2659558%" x1="-37.5782111%">
            <stop offset="0%" stop-color="#FFF29D"></stop>
            <stop offset="100%" stop-color="#F9AB21"></stop>
        </linearGradient>
        <circle r="194.396454" cy="194.396454" cx="194.396454" id="path-22"></circle>
        <linearGradient id="linearGradient-24" y2="39.7403744%" x2="72.8598568%" y1="-9.17327163%" x1="27.2720342%">
            <stop offset="0%" stop-color="#FFF29D"></stop>
            <stop offset="100%" stop-color="#F9AB21"></stop>
        </linearGradient>
        <linearGradient id="linearGradient-25" y2="84.438511%" x2="78.6845317%" y1="-52.7807057%" x1="-55.3898456%">
            <stop offset="0%" stop-color="#FFF29D"></stop>
            <stop offset="100%" stop-color="#F9AB21"></stop>
        </linearGradient>
        <linearGradient id="linearGradient-26" y2="56.8516241%" x2="86.218533%" y1="22.3625025%" x1="41.760736%">
            <stop offset="0%" stop-color="#FFF29D"></stop>
            <stop offset="100%" stop-color="#F9AB21"></stop>
        </linearGradient>
        <linearGradient id="linearGradient-27" y2="100%" x2="50%" y1="0%" x1="50%">
            <stop offset="0%" stop-color="#FFF29D"></stop>
            <stop offset="100%" stop-color="#F9AB21"></stop>
        </linearGradient>
        <linearGradient id="linearGradient-28" y2="100%" x2="50%" y1="0%" x1="50%">
            <stop offset="0%" stop-color="#FFF29D"></stop>
            <stop offset="100%" stop-color="#F9AB21"></stop>
        </linearGradient>
        <linearGradient id="linearGradient-29" y2="100%" x2="50%" y1="0%" x1="50%">
            <stop offset="0%" stop-color="#FFF29D"></stop>
            <stop offset="100%" stop-color="#F9AB21"></stop>
        </linearGradient>
        <linearGradient id="linearGradient-30" y2="100%" x2="50%" y1="0%" x1="50%">
            <stop offset="0%" stop-color="#FFF29D"></stop>
            <stop offset="100%" stop-color="#F9AB21"></stop>
        </linearGradient>
        <linearGradient id="linearGradient-31" y2="73.6326896%" x2="100%" y1="11.7098971%" x1="14.3474826%">
            <stop offset="0%" stop-color="#BFD4FA"></stop>
            <stop offset="100%" stop-color="#5792F0"></stop>
        </linearGradient>
        <linearGradient id="linearGradient-32" y2="44.1197864%" x2="48.2138386%" y1="-31.4050544%" x1="24.7258818%">
            <stop offset="0%" stop-color="#BFD4FA"></stop>
            <stop offset="100%" stop-color="#5792F0"></stop>
        </linearGradient>
        <linearGradient id="linearGradient-33" y2="100%" x2="50%" y1="-19.0038784%" x1="50%">
            <stop offset="0%" stop-color="#FFCDA5"></stop>
            <stop offset="100%" stop-color="#FFE8D1"></stop>
        </linearGradient>
        <linearGradient id="linearGradient-34" y2="100%" x2="50%" y1="0%" x1="50%">
            <stop offset="0%" stop-color="#FFF2DF"></stop>
            <stop offset="100%" stop-color="#FEE0BC"></stop>
        </linearGradient>
        <linearGradient id="linearGradient-35" y2="100%" x2="63.6424015%" y1="23.4458427%" x1="21.875%">
            <stop offset="0%" stop-color="#FFF2DF"></stop>
            <stop offset="100%" stop-color="#FEE0BC"></stop>
        </linearGradient>
        <linearGradient id="linearGradient-36" y2="100%" x2="50%" y1="0%" x1="50%">
            <stop offset="0%" stop-color="#FFF2DF"></stop>
            <stop offset="100%" stop-color="#FEE0BC"></stop>
        </linearGradient>
        <linearGradient id="linearGradient-37" y2="100%" x2="50%" y1="0%" x1="50%">
            <stop offset="0%" stop-color="#FEE127"></stop>
            <stop offset="100%" stop-color="#F9AB21"></stop>
        </linearGradient>
    </defs>
    <g fill-rule="evenodd" fill="none" stroke-width="1" stroke="none" id="暂无搜索结果">
        <rect height="1024" width="1024" y="0" x="0" id="矩形"></rect>
        <g transform="translate(32.000000, 155.000000)" id="编组">
            <path opacity="0.100000001" fill="url(#linearGradient-1)" id="路径-58" d="M15.6787721,483.991738 C7.54843227,448.923736 -45.3755181,220.552551 104.26275,189.152467 C253.901017,157.752383 342.302252,194.324178 408.051554,130.385963 C473.800855,66.4477487 490.197599,76.941856 544.20188,81.1706872 C598.206161,85.3995183 660.79635,39.2464916 681.828112,25.3831577 C702.859874,11.5198239 892.751849,-77.6759509 941.2998,189.152467 C948.972523,304.512719 955.348785,429.665535 901.630196,477.072892 C847.911607,524.480248 902.611565,567.048195 941.2998,571.778375 C979.988036,576.508554 923.212808,657.511206 833.855526,692.87654 C774.442971,719.530076 390.136098,795.953225 159.994564,717.394884 C48.8634652,669.801699 23.8091119,519.059741 15.6787721,483.991738 Z"></path>
            <path fill="url(#linearGradient-2)" id="路径" d="M247.58039,174.108617 C247.58039,188.436186 233.008992,199.898241 214.603015,199.898241 L112.603229,199.898241 C94.1972527,198.752035 78.858939,187.863083 78.858939,172.962411 C78.858939,163.219664 85.7611801,154.623123 95.7310841,150.038301 C94.9641684,148.318993 94.1972527,146.599685 94.1972527,144.880376 C94.1972527,135.137629 104.167157,126.541088 117.204723,126.541088 C122.573133,126.541088 127.174627,128.260396 131.009206,130.552807 C140.212194,117.371444 157.084339,108.2018 177.024147,108.2018 C204.633111,108.2018 226.873666,125.967985 226.873666,147.74589 L226.873666,150.038301 C239.144317,154.05002 247.58039,163.219664 247.58039,174.108617 Z"></path>
            <path fill="url(#linearGradient-3)" id="路径" d="M781.949585,59.2588248 C781.949585,70.1477771 771.752859,78.858939 758.872784,78.858939 L687.495701,78.858939 C674.615626,77.9878228 663.88223,69.712219 663.88223,58.3877086 C663.88223,50.983221 668.712259,44.4498496 675.688966,40.9653849 C675.152296,39.6587106 674.615626,38.3520363 674.615626,37.045362 C674.615626,29.6408744 681.592334,23.107503 690.71572,23.107503 C694.472409,23.107503 697.692427,24.4141773 700.375776,26.1564097 C706.815814,16.1385736 718.622549,9.16964407 732.575964,9.16964407 C751.896077,9.16964407 767.459501,22.671945 767.459501,39.2231525 L767.459501,40.9653849 C776.046217,44.0142915 781.949585,50.983221 781.949585,59.2588248 Z"></path>
            <path fill="url(#linearGradient-3)" id="路径备份" d="M849.804951,66.59454 C849.804951,77.4834924 839.608225,86.1946542 826.72815,86.1946542 L755.351067,86.1946542 C742.470992,85.323538 731.737597,77.0479343 731.737597,65.7234238 C731.737597,58.3189363 736.567625,51.7855649 743.544332,48.3011001 C743.007662,46.9944258 742.470992,45.6877516 742.470992,44.3810773 C742.470992,36.9765897 749.4477,30.4432183 758.571086,30.4432183 C762.327775,30.4432183 765.547793,31.7498926 768.231142,33.492125 C774.67118,23.4742888 786.477915,16.5053593 800.43133,16.5053593 C819.751443,16.5053593 835.314867,30.0076602 835.314867,46.5588677 L835.314867,48.3011001 C843.901583,51.3500068 849.804951,58.3189363 849.804951,66.59454 Z"></path>
            <g transform="translate(100.866085, 471.319705)" id="绿植">
                <path fill="url(#linearGradient-4)" id="路径" d="M29.1749713,39.5715068 C25.3269243,32.1398906 21.99521,20.9381261 20.1079911,15.1781122 C18.8942312,11.4735745 18.4861502,6.82415358 18.3458967,2.85419061 C18.320396,2.15928624 18.3535469,1.40003886 18.7207561,0.87886058 C19.0599147,0.396288096 19.6005283,0.248299201 20.1079911,0.161436153 C26.8580112,-0.993520658 33.1821707,4.24399937 38.4863043,9.63594259 C47.796589,19.0943633 55.0694119,35.284848 59.7193633,49.8550996 C60.4655985,53.6639734 61.6820209,63.2819171 57.9407447,66.58593 C54.1994685,69.8899429 49.1363977,66.0105123 45.5907834,63.2819171 C35.085344,55.1972553 29.4044771,40.0154735 29.1749713,39.5715068 Z"></path>
                <path fill="url(#linearGradient-5)" id="路径" d="M73.9734094,91.2322883 C76.4685621,90.1740153 78.1294676,87.2398023 79.0981686,84.2177178 C84.4993978,67.3673484 96.294517,59.7767525 105.640932,48.2812263 C109.32456,43.7505871 112.810413,39.0162003 115.773035,33.7483982 C119.286934,27.4955345 126.325376,14.6201474 114.312143,16.7379867 C100.953381,19.0930322 83.4459943,39.7348054 79.0981686,45.3002077 C72.6837066,53.5109928 67.0756683,68.1539667 66.0214373,74.2975986 C66.1169757,87.7913467 68.767633,93.4362432 73.9734094,91.2322883 Z"></path>
                <path fill="url(#linearGradient-6)" id="路径" d="M39.4112646,129.672961 C41.1672069,133.429002 45.6042721,132.175086 46.8998057,129.672961 C48.6162618,126.364392 49.516078,125.928978 49.516078,118.514588 C49.516078,111.100198 46.6006607,101.39654 43.8274897,97.2567489 C42.9986953,94.998133 37.2229067,86.7931917 25.7807565,81.0062191 C16.2775916,75.296728 2.27698939,76.5488015 0.583217781,79.6580597 C-1.31219331,83.1352774 1.86362846,87.0172507 3.68090425,89.0931558 C7.46164445,93.4136142 12.6894061,96.1416273 21.3804057,103.764772 C28.2147048,109.943224 34.2249911,118.579287 39.4112646,129.672961 Z"></path>
                <path fill="url(#linearGradient-7)" id="路径" d="M114.722861,61.1517064 C124.164809,56.7787252 118.847644,58.3265773 129.690709,54.7743265 C132.178038,53.695445 148.947231,51.8121903 150.219358,54.7743265 C152.523539,60.1495823 129.648344,70.7382568 127.17339,73.3811973 C117.910036,78.8092923 109.701154,88.4170498 105.967625,91.9549573 C103.458022,94.3329653 101.293087,98.858677 99.3279742,101.974027 C97.4049352,105.022346 96.3750665,107.43938 94.0486101,109.996137 C92.4398902,111.764481 90.5886248,113.36046 88.4873891,113.657312 C86.1015338,113.995659 83.6142053,112.453944 82.3297043,109.839731 C80.0923462,105.291192 80.6734054,102.756722 81.0594982,97.8379157 C81.2649193,95.2237029 82.4800933,89.6325899 84.2323605,88.288776 C85.1629431,87.5769696 87.5815561,84.2066388 88.4873891,83.443761 C90.9623428,81.3562211 89.4674708,78.9958498 91.6924542,76.4869715 C92.556213,75.5134246 98.2241449,69.4791285 99.3279742,69.0801339 C101.426735,68.32364 107.864943,64.4519498 109.90678,63.5071305 L114.722861,61.1517064 Z"></path>
                <path transform="translate(112.658806, 111.109411) rotate(-37.000000) translate(-112.658806, -111.109411)" fill="url(#linearGradient-8)" id="路径" d="M100.145131,110.912544 C105.501053,109.958341 110.534424,111.178319 115.570735,112.017911 C120.205392,112.79166 124.302539,114.549313 127.277822,117.629631 C129.605707,120.042939 131.440745,123.262057 135.091755,123.940934 C135.446054,124.005876 135.860409,124.033408 136.161707,123.824315 C137.001601,123.240917 137.233553,120.263392 137.542616,119.252586 C138.113731,117.380897 138.226038,115.417786 138.016403,113.557898 C137.588493,109.788251 135.732151,106.240176 132.749431,103.637874 C127.513078,99.0681341 119.299246,97.4015603 111.503373,98.612625 C103.703847,99.8238626 96.3720463,103.702977 90.6731929,108.777553 C89.1790777,110.108403 87.706439,111.843624 87.2482744,113.63769 C87.1234811,114.130687 87.2511162,114.684019 87.7093977,114.945163 C88.1073058,115.171453 88.6523005,115.133096 89.1518271,115.052895 C92.6309695,114.476606 95.6073303,112.151718 98.9878314,111.184137 C99.3683788,111.074998 99.7517095,110.984582 100.145131,110.912544 Z"></path>
                <path transform="translate(62.321697, 129.913114) rotate(2.000000) translate(-62.321697, -129.913114)" stroke="url(#linearGradient-9)" id="路径" d="M50.0172177,50.6542426 C50.2101359,50.5084365 50.4585271,50.4815157 50.6806515,50.5577558 C50.9121749,50.6372218 51.1122153,50.8281319 51.2201537,51.1108189 C51.6544148,52.2445978 52.076439,53.3860933 52.4859974,54.5346737 C55.7777669,63.784573 58.234887,73.5160356 60.2213399,83.3532264 C62.1904588,93.1109715 63.6828057,103.012865 65.0017181,112.942598 C66.3794682,123.321783 67.6201918,133.732208 68.8095301,144.148793 C70.0249717,154.793944 71.1597084,165.453592 72.2135774,176.126208 C73.2615823,186.73637 74.2288233,197.358936 75.1152868,207.990691 C75.1444355,208.34063 75.0248956,208.663964 74.8378018,208.906737 C74.661854,209.135048 74.4222366,209.310955 74.181234,209.310099 C73.9400944,209.309239 73.749715,209.177525 73.6050767,208.990381 C73.3901264,208.712262 73.266757,208.317476 73.2315321,207.897146 C73.1194243,206.560407 73.0073265,205.226843 72.8927841,203.890273 C71.9939823,193.358095 71.0168171,182.835161 69.9588669,172.327879 C68.9084499,161.880824 67.7796897,151.449362 66.5701303,141.030337 C65.3805958,130.77861 64.1518474,120.529921 62.7493029,110.321885 C61.383148,100.377945 59.8084668,90.4714321 57.71712,80.7315192 C55.6502647,71.0990535 53.1043212,61.608294 49.6716554,52.6292781 C49.5259694,52.2490937 49.484852,51.8267397 49.5609455,51.446579 C49.6239925,51.1315988 49.7680587,50.8428802 50.0172177,50.6542426 Z"></path>
                <path transform="translate(74.329952, 126.720698) rotate(2.000000) translate(-74.329952, -126.720698)" stroke="url(#linearGradient-10)" id="路径" d="M89.0786771,44.2195072 C89.3331322,44.2200133 89.5891078,44.3529302 89.7572539,44.5711292 C89.9722362,44.8514475 90.0634937,45.1914589 90.0645968,45.5328828 C90.0658824,45.9307506 89.9460326,46.3329705 89.7397565,46.6622674 C89.1103319,47.65976 88.4932483,48.6701494 87.8833864,49.6905553 C83.0131788,57.8539771 78.8363174,66.7362262 75.3057389,76.0001905 C71.7822009,85.248888 68.9311976,94.9238153 66.7033203,104.845096 C64.3478638,115.336733 62.6815277,126.106876 61.6915754,136.972495 C60.6260251,148.658444 60.290546,160.459299 60.5669328,172.230242 C60.8432772,184.007678 61.7287237,195.761624 63.1224247,207.411631 C63.1751435,207.851424 63.1396575,208.293562 62.9867382,208.647791 C62.879097,208.897135 62.7102216,209.102516 62.4528248,209.193739 C62.2342997,209.271526 61.9755303,209.191088 61.768179,209.037169 C61.5481708,208.873855 61.3784322,208.6137 61.3390501,208.286187 C61.1677149,206.83896 61.0012801,205.39175 60.8422242,203.941688 C59.5419646,192.016501 58.7460115,180.003534 58.6140241,167.967424 C58.4845951,155.957064 59.0237384,143.945882 60.3030387,132.062096 C61.4653995,121.269412 63.2744088,110.603695 65.7920176,100.221899 C68.2435412,90.1151643 71.3541,80.2664014 75.1418714,70.8963223 C78.9224786,61.5447254 83.4040774,52.7001829 88.5383477,44.5293481 C88.6712858,44.3183728 88.8712743,44.2190948 89.0786771,44.2195072 Z"></path>
                <path stroke="url(#linearGradient-11)" id="路径" d="M106.334142,79.5044059 C106.520373,79.3546132 106.742182,79.327403 106.945541,79.3958271 C107.199817,79.481383 107.42115,79.6984027 107.554646,79.9904512 C107.710099,80.3336453 107.735973,80.7242317 107.663293,81.0814273 C107.592195,81.4308525 107.427268,81.7542234 107.175151,81.95731 C106.49252,82.5067923 105.819866,83.069142 105.157368,83.6505803 C99.9445091,88.2206615 95.180508,94.1278743 91.1743739,100.694273 C90.7788904,101.342317 90.3261826,102.112261 89.8589517,102.939281 C89.3720861,103.797919 88.8951571,104.669372 88.4307625,105.550218 C87.5144744,107.286127 86.642869,109.063666 85.8158349,110.873546 C84.1588542,114.506145 82.6752683,118.265774 81.3736328,122.13081 C80.8028159,123.817757 80.1674329,125.876014 79.614062,127.834791 C79.0633637,129.78009 78.5548355,131.747785 78.0910105,133.731258 C77.0149048,138.323678 76.1717944,143.005631 75.5296227,147.73222 C74.1718676,157.702732 73.7576551,167.932081 73.9880776,178.087967 C74.2207833,188.343934 75.1142845,198.516901 76.4413179,208.604514 C76.4983908,209.032558 76.4592448,209.465147 76.3060115,209.813669 C76.1938707,210.068728 76.0180609,210.279234 75.7567755,210.371606 C75.5341902,210.450455 75.2762977,210.374916 75.0688942,210.223217 C74.8467225,210.060716 74.6759261,209.799639 74.6326872,209.470286 C74.4624221,208.18765 74.3020309,206.905013 74.1466181,205.622762 C72.8984339,195.257 72.0940155,184.789436 72.0274133,174.293317 C71.9633306,163.866213 72.6309095,153.404102 74.265023,143.183614 C75.6685143,134.405627 77.8399807,125.859402 80.7996235,117.74834 C83.6231289,110.011199 87.1913574,102.733756 91.4684457,96.1988725 C95.7237292,89.6975481 100.73139,84.0086551 106.334142,79.5044059 Z"></path>
                <path stroke="url(#linearGradient-12)" id="路径" d="M104.835983,108.701801 C105.10013,108.701403 105.360308,108.838505 105.558856,109.065851 C105.778813,109.317417 105.867871,109.668467 105.867871,110.017451 C105.867871,110.407444 105.755346,110.805462 105.537802,111.09119 C104.150763,112.908545 102.815726,114.786692 101.53491,116.722574 C101.113175,117.36155 100.69658,118.006945 100.282845,118.659193 C99.6193781,119.725234 99.423959,120.046344 99.2310906,120.36744 C97.6106258,123.065269 96.0878804,125.853013 94.6629218,128.717807 C93.2332606,131.591348 91.906426,134.541934 90.6772612,137.55691 C89.7584145,139.813021 88.8951292,142.103746 88.0874175,144.429386 C87.8730342,145.0618 87.7346225,145.471306 87.6418872,145.746584 L87.5632554,145.980404 C87.497605,146.17605 87.4675328,146.267029 87.4427437,146.342022 C85.3564368,152.693025 83.6963885,159.161492 82.4347366,165.748422 C81.6491604,169.837806 81.0189686,173.971307 80.5463008,178.134913 L80.5463008,178.134913 L80.4605384,178.888682 C80.4354754,179.136461 80.4180024,179.308388 80.4038953,179.447207 L80.4038953,179.447207 L80.3149552,180.339849 C80.1505207,182.014481 80.0143398,183.695529 79.9012817,185.379927 C79.4567759,192.030616 79.4156922,198.723011 79.795931,205.37955 C79.8163678,205.74457 79.6973337,206.066566 79.5048499,206.306908 C79.309143,206.551275 79.0369728,206.718065 78.7609383,206.733001 C78.5168301,206.746731 78.3194668,206.605993 78.1678657,206.416698 C77.9404751,206.13277 77.805459,205.729292 77.7820866,205.323379 C77.7361281,204.510418 77.6952715,203.700646 77.6620628,202.887287 C77.3837258,196.201095 77.5318625,189.489396 78.0834433,182.828543 C78.6503954,175.953456 79.6182328,169.132567 81.0101014,162.442303 C82.3965345,155.769561 84.2119349,149.249853 86.4103325,142.924558 C88.5589584,136.739977 91.1080784,130.765625 94.0553954,125.11639 C97.041469,119.394656 100.435335,113.987999 104.206634,109.043409 C104.37895,108.817777 104.603122,108.702151 104.835983,108.701801 Z"></path>
                <path transform="translate(47.828000, 156.002365) rotate(-2.000000) translate(-47.828000, -156.002365)" stroke="url(#linearGradient-13)" id="路径" d="M35.46495,103.842179 C35.6845983,103.841397 35.9025075,103.938029 36.0372321,104.152444 C36.5274193,104.928806 37.0076452,105.717916 37.482783,106.509972 C40.7995873,112.046059 43.6740983,118.006201 46.1172499,124.247353 C48.5828823,130.540088 50.626063,137.107817 52.3244874,143.810169 C54.0146975,150.483849 55.3619618,157.298798 56.4710108,164.171836 C57.5931403,171.126927 58.4741525,178.146584 59.2161214,185.185742 C59.9730529,192.379758 60.5957146,199.596564 61.1711851,206.820065 C61.199397,207.172811 61.0835117,207.48516 60.8992426,207.721212 C60.7048356,207.97025 60.4333182,208.145579 60.1717655,208.161496 C59.9427722,208.17523 59.7653665,208.044784 59.6287994,207.86936 C59.4047905,207.581614 59.2770426,207.167005 59.2444461,206.752206 C59.198193,206.15183 59.1495605,205.551463 59.1010122,204.952152 C59.0793945,204.685289 59.0577938,204.418636 59.0363828,204.151719 C58.7516948,200.652557 58.4545769,197.150248 58.132607,193.654835 C57.9716086,191.890464 57.8006599,190.126128 57.6246433,188.360918 L57.6246433,188.360918 L57.5810138,187.931236 C57.5699011,187.826999 57.5593189,187.72344 57.5487723,187.620247 C57.5363916,187.499107 57.5240586,187.378463 57.5113383,187.26097 C57.3802187,185.972657 57.2433336,184.685371 57.1006998,183.399264 C56.3266325,176.408238 55.4055176,169.443295 54.2303087,162.549443 C53.0663621,155.726695 51.6578891,148.968772 49.9002424,142.362256 C49.4691523,140.742254 49.0180855,139.128723 48.5422125,137.528606 C48.1753763,136.290066 47.7944257,135.058587 47.4000554,133.836348 L47.4000554,133.836348 L47.3247192,133.598115 L47.299312,133.521516 C47.2550978,133.382175 47.2093998,133.244749 47.1634106,133.106499 L47.1224609,132.983226 C46.0600364,129.783569 44.9001068,126.638675 43.6352419,123.567879 C42.3745641,120.504792 41.0062929,117.512547 39.5301418,114.609782 C38.7782997,113.135819 38.001401,111.684375 37.1944964,110.258705 C36.7947512,109.552232 36.3874978,108.852189 35.9735278,108.155738 L35.9735278,108.155738 L35.943281,108.105737 L35.908242,108.045455 L35.903,108.039 L35.8986364,108.031569 L35.8817121,108.003409 C35.8607754,107.968041 35.8391942,107.932667 35.8187779,107.899242 L35.8187779,107.899242 L35.759662,107.801449 C35.684807,107.675987 35.608744,107.55208 35.5325148,107.427928 L35.5325148,107.427928 L35.4323462,107.264486 C35.2258415,106.928348 35.0193209,106.595422 34.8113317,106.267353 C34.599244,105.929919 34.4796852,105.549157 34.4805543,105.169564 C34.4813379,104.827323 34.5817452,104.486984 34.8005289,104.184023 C34.9588332,103.963024 35.2139408,103.843073 35.46495,103.842179 Z"></path>
                <path fill="url(#linearGradient-14)" id="路径" d="M77.8183818,186.542494 C79.5357736,190.234105 81.3292524,193.667304 83.1140355,196.753491 C84.2488184,198.717428 85.492297,200.670291 87.0466453,201.445529 C88.6009936,202.220768 90.5444724,201.430763 91.2901248,198.986916 C91.6531684,197.798217 91.6901249,196.402788 91.6944728,195.062733 C91.764038,176.276122 90.0140375,156.909928 82.4901223,142.335446 C77.2444686,132.176131 64.3335953,124.121034 66.2053349,145.639438 C67.4444657,159.874292 72.2379454,174.559523 77.8183818,186.542494 Z"></path>
                <rect rx="4.58482203" height="9.16964407" width="60.5196508" y="287.926824" x="42.1803627" fill="#FEE3B1" id="矩形"></rect>
                <path fill="#BE841D" id="矩形" d="M47.1553546,207.233956 L97.7250217,207.233956 C101.03873,207.233956 103.725022,209.920247 103.725022,213.233956 C103.725022,213.486316 103.7091,213.738425 103.677352,213.98878 L94.5011733,286.349506 C94.1210106,289.347361 91.5707061,291.594681 88.5488427,291.594681 L56.3315335,291.594681 C53.3096702,291.594681 50.7593657,289.347361 50.3792029,286.349506 L41.203024,213.98878 C40.7861459,210.701399 43.1131486,207.698503 46.4005301,207.281625 C46.6508854,207.249877 46.9029943,207.233956 47.1553546,207.233956 Z"></path>
            </g>
            <g transform="translate(302.598254, 649.210800)" id="草">
                <ellipse ry="3.66785763" rx="11.7371444" cy="71.5232237" cx="24.5746461" fill="#BE841D" id="椭圆形"></ellipse>
                <path fill="url(#linearGradient-15)" id="路径-42" d="M12.1128233,70.0867711 C13.7111133,43.3964867 20.4068616,27.9482976 32.2000683,23.7422038 C36.8430646,23.122315 42.0177641,22.1902674 38.4096242,28.2074712 C34.8014843,34.224675 25.1395475,31.8829828 15.477931,70.070862 C14.6040609,71.703584 13.4823584,71.708887 12.1128233,70.0867711 Z"></path>
                <path fill="url(#linearGradient-16)" id="路径-41" d="M11.8923437,69.7523854 C8.75466565,44.8231382 6.18658187,29.1456231 4.18809239,22.7198402 C1.19035817,13.0811658 -5.19237722,-5.4687473 8.09165705,1.54915603 C21.3756913,8.56705936 22.9462713,44.5655062 16.8058348,66.4734985 C14.8972583,72.0172078 13.2594279,73.11017 11.8923437,69.7523854 Z"></path>
            </g>
            <g opacity="0.600000024" transform="translate(752.486759, 330.600588) scale(-1, 1) rotate(14.000000) translate(-752.486759, -330.600588) translate(577.809416, 173.423576)" id="叶子">
                <path fill="url(#linearGradient-17)" id="路径-78" d="M105.442155,0 C109.573258,47.7300896 116.405748,78.6283262 125.939625,92.69471 C127.62041,90.4871685 129.557448,88.2950803 131.750739,86.1184453 L128.980143,96.594414 C171.784353,165.593258 221.588717,213.695733 278.393235,240.901839 C301.105902,248.245216 374.604209,285.019019 340.447305,198.364687 C317.676035,140.595131 274.527047,90.5532745 211.000342,48.239116 L197.216655,48.239116 L203.451198,40.5110539 C192.758753,28.9149246 180.67084,19.2962909 167.18746,11.6551528 C165.47551,13.8357259 162.789789,15.9834675 159.130297,18.0983776 L159.749356,6.31076364 L105.442155,0 Z"></path>
                <path fill="url(#linearGradient-18)" id="路径-79" d="M89.4758415,209.157799 C65.9616129,223.381267 52.681406,219.164798 49.6352209,196.508393 C45.0659432,162.523785 41.1153618,162.301869 16.3098066,156.754412 C-8.49574873,151.206954 -2.14698393,127.555509 16.3098066,127.307471 C28.6143335,127.142112 45.0984357,130.049524 65.7621131,136.029707 C84.4178565,142.046702 92.3224326,139.13929 89.4758415,127.307471 C85.2059549,109.559742 69.8009504,95.3456149 89.4758415,98.3542372 C109.150733,101.362859 137.906134,137.656905 143.834835,156.754412 C147.787302,169.486083 154.95134,171.847505 165.326948,163.83868 L165.326948,127.307471 C168.572237,102.45306 181.024668,114.63013 202.684241,163.83868 C219.642568,188.95668 229.527092,194.268337 232.337815,179.773651 C247.750269,150.347926 279.249145,170.771226 326.834444,241.043551 C374.419743,311.315877 336.138838,331.068138 211.991727,300.300337 C202.179378,285.927187 189.284227,278.436733 173.306273,277.828975 C149.339342,276.917339 124.460579,275.210407 125.372839,241.043551 C125.981013,218.265647 114.015347,207.637063 89.4758415,209.157799 Z"></path>
            </g>
            <g transform="translate(212.735742, 174.223237)" id="放大镜">
                <path transform="translate(401.630410, 416.301841) rotate(-45.000000) translate(-401.630410, -416.301841)" fill="url(#linearGradient-19)" id="矩形" d="M382.450047,260.417891 L420.810773,260.417891 C433.513322,260.417891 443.810773,270.715342 443.810773,283.417891 L443.810773,549.18579 C443.810773,561.888339 433.513322,572.18579 420.810773,572.18579 L382.450047,572.18579 C369.747498,572.18579 359.450047,561.888339 359.450047,549.18579 L359.450047,283.417891 C359.450047,270.715342 369.747498,260.417891 382.450047,260.417891 Z"></path>
                <circle r="236.576817" cy="236.576817" cx="236.576817" fill="url(#linearGradient-20)" id="椭圆形"></circle>
                <g transform="translate(42.180363, 42.180363)" id="路径-84-+-路径-85-+-路径-86蒙版">
                    <mask fill="white" id="mask-23">
                        <use xlink:href="#path-22"></use>
                    </mask>
                    <use xlink:href="#path-22" fill="url(#linearGradient-21)" id="蒙版"></use>
                    <circle r="7.33571525" cy="82.7010066" cx="159.162269" mask="url(#mask-23)" fill="#BE841D" id="椭圆形"></circle>
                    <circle r="7.33571525" cy="82.7010066" cx="195.840845" mask="url(#mask-23)" fill="#BE841D" id="椭圆形备份"></circle>
                    <circle r="7.33571525" cy="82.7010066" cx="232.519421" mask="url(#mask-23)" fill="#BE841D" id="椭圆形备份-2"></circle>
                    <path mask="url(#mask-23)" fill="url(#linearGradient-24)" id="路径-84" d="M-10.0004876,214.352915 C41.5232025,231.286935 90.3517461,222.218917 136.485143,187.148863 C205.685239,134.543781 348.077934,108.98109 410.550105,159.175109 C411.724168,210.835834 387.507396,274.94395 337.899791,351.499458 L189.236401,409.409904 L57.1519408,366.396842 L8.31914443,288.078423 L-10.0004876,214.352915 Z"></path>
                    <path mask="url(#mask-23)" fill="url(#linearGradient-25)" id="路径-85" d="M-10.0004876,227.484516 C39.6593143,260.326032 106.457779,250.935711 190.394907,199.313552 C316.300598,121.880314 398.94553,142.789736 423.130096,158.246472 C419.982045,187.90537 411.948185,318.833615 313.025618,377.696033 C214.103051,436.558452 65.5128307,400.821217 30.5885344,343.276511 C7.30567019,304.913374 -6.2240038,266.316042 -10.0004876,227.484516 Z"></path>
                    <path mask="url(#mask-23)" fill="url(#linearGradient-26)" id="路径-86" d="M-22.4277057,188.10427 C10.3166008,178.91423 48.8814607,188.573622 93.266874,217.082447 C159.844994,259.845684 216.683735,256.764587 290.952183,217.082447 C365.220632,177.400307 392.888432,179.250492 410.590821,188.10427 C402.510574,214.931895 397.483659,374.508616 290.952183,392.369928 C184.420708,410.231239 112.723785,416.085759 48.1709059,357.170563 C5.13565324,317.893765 -18.3972173,261.538334 -22.4277057,188.10427 Z"></path>
                </g>
            </g>
            <g transform="translate(665.716159, 652.878658)" id="草">
                <path fill="url(#linearGradient-20)" id="路径-43" d="M61.7748444,91.6964407 C59.4197635,80.7478181 52.5420788,73.0943425 41.1417903,68.736014 C28.1230772,64.4619277 20.9904781,59.3814452 29.1369259,55.6976243 C36.0161553,55.139133 50.6871453,49.6674732 61.7748444,82.3502709 C62.5464914,85.5174006 62.5464914,88.6327905 61.7748444,91.6964407 Z"></path>
                <path fill="url(#linearGradient-27)" id="路径-44" d="M61.7960153,91.6964407 C54.7480095,65.9556349 46.741476,47.1625626 37.7764149,35.3172237 C31.193612,27.2225695 31.6548786,15.6397265 37.7764149,13.0216967 C44.042449,12.339917 55.5909453,11.2854231 64.2864296,55.6474133 C64.8356186,58.6988064 67.8995972,76.5500861 64.2864296,88.070797 C63.7516251,89.6519209 62.921487,90.8604687 61.7960153,91.6964407 Z"></path>
                <path fill="url(#linearGradient-28)" id="路径-45" d="M64.8392915,85.634973 C68.0916411,74.1221175 67.6787201,59.1004942 63.6005284,40.5701032 C57.3625249,22.6065448 46.7149626,0.509404109 66.1221171,0 C73.9956906,1.02628812 83.5032356,8.93713226 79.9107851,48.3638627 C77.7215882,64.2733362 73.914169,73.6718244 69.9184059,85.634973 C68.5245404,86.3809192 66.8315022,86.3809192 64.8392915,85.634973 Z"></path>
                <path fill="url(#linearGradient-29)" id="路径-46" d="M68.0164369,91.6964407 C66.7763262,58.8848459 72.6970781,35.3373681 85.7786927,21.0540074 C89.3112702,16.2810774 102.750748,11.8108935 102.700014,26.7728258 C101.296984,33.2063624 98.2948,46.9411594 80.9829634,67.8964155 C75.2796938,75.4597745 71.5313658,86.5119444 71.4948306,89.1032686 C71.4704738,90.830818 70.3110092,91.6952087 68.0164369,91.6964407 Z"></path>
                <path fill="url(#linearGradient-30)" id="路径-47" d="M0,95.2779591 C13.136916,92.8635709 20.3817464,90.8139591 21.7344914,89.1291237 C23.7636088,86.6018705 41.6392102,75.7507001 52.7863618,84.8907936 C55.2129193,81.8156923 62.9951258,79.4236524 67.4487156,84.8907936 C69.4862595,76.2593345 82.197333,70.731465 87.7255092,71.6270015 C93.9511025,71.1465798 112.32999,71.3464642 113.703586,95.2779591 C108.689108,95.393078 70.7879125,95.393078 0,95.2779591 Z"></path>
            </g>
            <g transform="translate(381.457193, 383.084454)" id="人物">
                <path transform="translate(112.052327, 355.123241) scale(-1, 1) rotate(-8.000000) translate(-112.052327, -355.123241)" fill-rule="nonzero" fill="url(#linearGradient-31)" id="路径-52备份" d="M118.187224,346.259524 L116.839514,355.067094 C111.350902,355.238741 105.382116,356.852097 98.9331546,359.907161 C94.7832705,362.569669 94.5985705,363.776054 94.4649744,366.068592 C94.3759103,367.59695 106.10098,367.59695 129.640183,366.068592 L129.640183,343.031621 L118.187224,346.259524 Z"></path>
                <path transform="translate(148.730903, 355.123241) scale(-1, 1) rotate(-8.000000) translate(-148.730903, -355.123241)" fill-rule="nonzero" fill="url(#linearGradient-31)" id="路径-52备份-2" d="M154.8658,346.259524 L153.51809,355.067094 C148.029479,355.238741 142.060692,356.852097 135.611731,359.907161 C131.461847,362.569669 131.277147,363.776054 131.143551,366.068592 C131.054487,367.59695 142.779556,367.59695 166.318759,366.068592 L166.318759,343.031621 L154.8658,346.259524 Z"></path>
                <path fill-rule="nonzero" fill="url(#linearGradient-32)" id="路径-62备份" d="M72.0766215,183.078558 C67.6683841,202.03821 69.3650582,215.396968 77.1666439,223.154832 C84.6867963,224.042085 98.7165553,225.145259 119.255921,226.464353 C120.043566,266.50848 121.042336,294.336233 122.252233,309.947614 C123.46213,325.558994 124.790664,339.072147 126.237834,350.487071 L147.157705,349.369704 L152.216092,230.803616 C152.120324,212.522214 148.578901,199.819647 141.591821,192.695915 C134.604742,185.572184 126.999895,181.317442 118.777281,179.931691 L72.0766215,183.078558 Z"></path>
                <path fill-rule="nonzero" fill="url(#linearGradient-32)" id="路径-62" d="M37.2319741,183.078558 C32.8237367,202.03821 34.5204108,215.396968 42.3219964,223.154832 C49.8421489,224.042085 63.8719079,225.145259 84.4112735,226.464353 C85.1989182,266.50848 86.197689,294.336233 87.4075859,309.947614 C88.6174827,325.558994 89.9460163,339.072147 91.3931865,350.487071 L112.313057,349.369704 L117.371444,230.803616 C117.275677,212.522214 113.734253,199.819647 106.747174,192.695915 C99.7600946,185.572184 92.1552478,181.317442 83.9326335,179.931691 L37.2319741,183.078558 Z"></path>
                <path fill="#FEE0BC" id="胳膊-path" d="M11.6825796,126.747756 L0.797974736,146.065405 C0.797974736,146.065405 -0.228133707,147.808943 0.0468044394,149.473703 C0.336471415,151.215755 1.92227537,152.503961 1.92227537,152.503961 L38.2873417,170.762047 L38.5125051,154.776656 L20.6868038,146.44394 L30.8202383,130.914608 L11.6825796,126.747756 Z"></path>
                <path fill="#FEE0BC" id="胳膊-path" d="M146.039917,126.747756 L156.923614,145.694405 C156.923614,145.694405 157.946111,147.404459 157.670824,149.037246 C157.385704,150.745842 155.797883,152.009308 155.797883,152.009308 L119.529664,170.762047 L119.205373,154.238355 L137.034075,146.065671 L126.902504,130.834583 L146.039917,126.747756 Z"></path>
                <g transform="translate(42.180363, 0.000000)" id="脑袋">
                    <rect height="19.4297323" width="19.4211025" y="68.8055183" x="25.9303001" fill="url(#linearGradient-33)" id="矩形"></rect>
                    <ellipse ry="26.1118484" rx="27.9126655" cy="46.5925829" cx="34.8903762" fill="url(#linearGradient-34)" id="椭圆形"></ellipse>
                    <ellipse ry="6.48294167" rx="4.86220626" cy="47.8531549" cx="63.3432869" fill="url(#linearGradient-35)" id="椭圆形"></ellipse>
                    <ellipse ry="6.48294167" rx="4.86220626" cy="51.4547892" cx="5.71713869" transform="translate(5.717139, 51.454789) rotate(-8.000000) translate(-5.717139, -51.454789)" fill="url(#linearGradient-36)" id="椭圆形备份"></ellipse>
                    <path fill="#483029" id="路径-67" d="M9.46624188,52.2669712 C5.60580337,50.3144482 2.8178669,46.2487339 1.10243248,40.0698283 C-1.51268163,25.2740038 5.74851572,11.3464338 10.6047943,8.55255726 C15.4610728,5.75868069 18.2395654,4.21281811 20.8082108,5.66568578 C22.8864004,2.53672082 33.4088616,-3.19536264 49.5913941,2.26460963 C65.7739266,7.7245819 70.4770169,23.9490564 69.5855627,32.1730967 C68.9912599,37.6557902 66.6812879,43.4218835 62.6556467,49.4713765 L62.6556467,41.2618223 C61.7290185,45.5189442 60.5334245,48.2554623 59.0688649,49.4713765 C59.7181051,46.2637075 59.9241308,42.3426876 59.2033219,40.5505221 C58.4825131,38.7583565 58.4414947,42.6447695 57.4151865,45.5006055 C53.3099445,39.916332 47.9353426,35.9528016 41.2913808,33.6100142 L40.5615354,35.2678304 C34.3865049,29.1248307 30.4479415,25.4546643 28.7458452,24.2573313 C26.1927008,22.4613318 24.4963784,22.643626 23.8636348,25.0010006 C23.0195488,24.4543031 20.8732619,22.7107654 19.7729295,25.7581712 C18.0580938,29.5905959 15.4793893,34.6799982 14.6104486,45.2232394 C12.8686095,42.2082191 11.6090253,45.5411031 12.1172012,50.0467561 C11.4319781,49.9390073 10.7460367,49.7261571 10.0593767,49.4082054 L9.46624188,52.2669712 Z"></path>
                </g>
                <path fill="url(#linearGradient-37)" id="衣服" d="M68.5114282,79.6134035 C69.8155939,81.0229294 72.9363114,84.3840741 77.8735807,89.6968376 C84.6204871,82.6093502 87.9939404,79.0656065 87.9939404,79.0656065 L107.430114,83.3573499 C107.430114,83.3573499 112.766137,84.2533759 116.020524,87.4831911 C125.011623,96.4056662 139.925123,113.742247 139.925123,113.742247 L150.382163,125.371937 C147.777869,128.516605 144.761584,131.292708 141.415495,133.6246 C136.167429,137.231768 129.091824,140.003756 129.091824,140.003756 L120.877673,132.12599 L120.877673,187.267407 L37.2164636,187.267407 L37.2164636,131.37325 L32.3593149,137.377997 C32.3593149,137.377997 25.1664349,135.969676 18.9117566,132.876278 C14.7558127,130.720345 10.8698591,128.075863 7.33571525,124.998511 L31.9879434,94.6131237 C33.5207678,93.023285 35.1407045,91.520541 36.8402055,90.1118937 C38.3843007,88.8815065 40.0068068,87.7537556 41.6973542,86.7358486 C43.7602279,85.8426763 45.8809102,85.0906726 48.0448754,84.4849884 C55.6628781,82.3759415 68.5114282,79.6134035 68.5114282,79.6134035 Z"></path>
                <path fill="#483029" id="Fill-1633" d="M122.87323,189.101335 L36.6785763,189.101335 L36.6785763,137.011908 C36.6785763,134.381399 38.8429025,132.249542 41.5117479,132.249542 L118.040059,132.249542 C120.709678,132.249542 122.87323,134.381399 122.87323,137.011908 L122.87323,189.101335 Z"></path>
                <path fill="#483029" id="Fill-1634" d="M126.541088,187.267407 L33.0107186,187.267407 L33.0107186,188.394736 C33.0107186,188.784747 33.521231,189.101335 34.1509746,189.101335 L125.401672,189.101335 C126.031416,189.101335 126.541088,188.784747 126.541088,188.394736 L126.541088,187.267407 Z"></path>
            </g>
        </g>
    </g>
</svg>